<?xml version="1.0" encoding="utf-8"?>
<!-- Generator: Adobe Illustrator 24.2.1, SVG Export Plug-In . SVG Version: 6.00 Build 0)  -->
<svg version="1.1" id="Layer_1" xmlns="http://www.w3.org/2000/svg" xmlns:xlink="http://www.w3.org/1999/xlink" x="0px" y="0px"
	 viewBox="0 0 744.6 360.92" style="enable-background:new 0 0 744.6 360.92;" xml:space="preserve">
<style type="text/css">
	.st0{fill:#FFFFFF;}
</style>
<path class="st0" d="M743.6,327.6v32.33H489.27V327.6H743.6z"/>
<path class="st0" d="M3.42,345.93L2,340.85c0-1.82,1.06-4.55,3.19-8.2l20.89-4.68l29.39-5.85c2.36-1.3,4.01-3.12,4.96-5.46
	c1.42-3.38,2.12-13.38,2.12-30.03c0-88.39-0.48-139.42-1.42-153.06c-0.95-13.65-3.07-22.3-6.37-25.93
	c-3.31-3.64-11.81-6.5-25.49-8.58c-8.03-1.3-14.4-2.99-19.12-5.07l1.42-11.91c24.78-11.22,41.43-20.89,49.92-28.98
	c11.8-11.75,21.83-27.15,30.1-46.22l12.04,0.39c1.42,13.02,2.12,41.93,2.12,86.72l-0.35,6.64c0,1.56,0.23,4.04,0.71,7.42
	c8.97-17.97,20.18-34.5,33.64-49.61l8.14-8.98c3.3-4.16,6.49-7.42,9.56-9.77c16.52-10.94,28.8-16.41,36.82-16.41
	c10.38,0,18.88,3.85,25.49,11.52c6.61,7.68,9.91,17.13,9.91,28.32c0,8.86-2.36,15.76-7.08,20.7c-6.37,6.51-13.69,9.77-21.95,9.77
	c-3.78,0-11.21-2.21-22.31-6.64c-11.1-4.42-18.41-6.64-21.95-6.64c-6.61,0-11.21,1.17-13.81,3.52
	c-6.61,5.73-14.64,17.45-24.08,35.16c-7.32,13.28-10.98,25.52-10.98,36.72l1.77,64.59l0.71,77.52c0.71,8.87,1.65,14.61,2.83,17.22
	c0.94,1.83,3.3,4.05,7.08,6.65c25.49,2.35,40.6,4.05,45.32,5.09c3.3,0.26,5.78,0.52,7.44,0.78c10.15,0.26,17.23,1.83,21.24,4.7
	c2.12,1.31,3.19,3.26,3.19,5.86c0,1.56-0.95,3.65-2.83,6.25l-39.3-0.78l-14.87-0.39l-21.6,0.39H82.37l-19.47,1.17L3.42,345.93z"/>
<path class="st0" d="M488.15,138.51l-141.98,1.14l-26.91-0.03c-10.86,0-21.95,0.54-33.28,1.62c-2.12,7.81-3.19,13.15-3.19,16.02
	l0.35,3.91v3.91l-0.35,19.14c0,15.89,4.54,35.35,13.63,58.4c9.08,23.05,22.07,40.63,38.95,52.73c16.87,12.11,37.94,18.55,63.2,19.34
	c13.45-0.78,24.19-2.6,32.22-5.47c8.02-2.86,19.35-9.5,33.99-19.92l25.49-23.05l2.12,15.63c0,1.83-0.12,3.78-0.35,5.86
	c-10.62,14.84-24.08,27.87-40.36,39.06c-16.29,11.2-32.81,19.4-49.57,24.61c-8.03,2.34-21.24,3.52-39.66,3.52
	c-16.76,0-33.28-3.78-49.57-11.33c-24.08-11.46-43.02-29.88-56.83-55.27c-13.81-25.39-20.71-56.18-20.71-92.38
	c0-11.46,1.95-26.17,5.84-44.14c3.9-17.97,10.92-37.11,21.07-57.42c6.84-13.8,15.22-25.13,25.14-33.98
	c14.16-12.5,26.56-21.22,37.18-26.17c15.34-7.03,33.16-10.55,53.46-10.55c21.95,0,39.89,4.43,53.82,13.28
	c18.88,11.72,32.98,26.83,42.31,45.31c9.32,18.49,13.99,35.42,13.99,50.78V138.51z M290.58,124.45h16.64
	c12.04,0,47.92-2.08,107.64-6.25c9.44-0.52,15.23-1.56,17.35-3.13c4.25-4.94,6.37-9.38,6.37-13.28c0-8.07-2.36-17.25-7.08-27.54
	c-4.72-10.28-11.98-18.23-21.77-23.83c-9.8-5.6-21.19-8.4-34.17-8.4c-27.38,0-49.34,11.33-65.86,33.98
	C296.95,93.2,290.58,109.35,290.58,124.45z"/>
</svg>
