<?xml version="1.0" encoding="utf-8"?>
<!-- Generator: Adobe Illustrator 24.2.1, SVG Export Plug-In . SVG Version: 6.00 Build 0)  -->
<svg version="1.1" id="Layer_1" xmlns="http://www.w3.org/2000/svg" xmlns:xlink="http://www.w3.org/1999/xlink" x="0px" y="0px"
	 viewBox="0 0 37.08 17.8" style="enable-background:new 0 0 37.08 17.8;" xml:space="preserve">
<style type="text/css">
	.st0{fill:#F84C26;}
</style>
<g>
	<path class="st0" d="M36.29,15.95v1.49h-12.1v-1.49H36.29z"/>
	<path class="st0" d="M1.08,16.79l-0.07-0.23c0-0.08,0.05-0.21,0.15-0.38l0.99-0.22l1.4-0.27c0.11-0.06,0.19-0.14,0.24-0.25
		c0.07-0.16,0.1-0.62,0.1-1.38c0-4.07-0.02-6.42-0.07-7.05c-0.04-0.63-0.15-1.03-0.3-1.19c-0.16-0.17-0.56-0.3-1.21-0.4
		C1.93,5.37,1.62,5.29,1.4,5.2l0.07-0.55c1.18-0.52,1.97-0.96,2.38-1.33C4.4,2.77,4.88,2.06,5.27,1.19L5.85,1.2
		c0.07,0.6,0.1,1.93,0.1,3.99L5.93,5.5c0,0.07,0.01,0.19,0.03,0.34c0.43-0.83,0.96-1.59,1.6-2.28l0.39-0.41
		C8.11,2.95,8.26,2.8,8.41,2.7c0.79-0.5,1.37-0.76,1.75-0.76c0.49,0,0.9,0.18,1.21,0.53c0.31,0.35,0.47,0.79,0.47,1.3
		c0,0.41-0.11,0.73-0.34,0.95c-0.3,0.3-0.65,0.45-1.04,0.45c-0.18,0-0.53-0.1-1.06-0.31c-0.53-0.2-0.88-0.31-1.04-0.31
		c-0.31,0-0.53,0.05-0.66,0.16C7.38,4.99,7,5.53,6.55,6.35C6.21,6.96,6.03,7.52,6.03,8.04l0.08,2.97l0.03,3.57
		c0.03,0.41,0.08,0.67,0.13,0.79c0.04,0.08,0.16,0.19,0.34,0.31c1.21,0.11,1.93,0.19,2.16,0.23c0.16,0.01,0.28,0.02,0.35,0.04
		c0.48,0.01,0.82,0.08,1.01,0.22c0.1,0.06,0.15,0.15,0.15,0.27c0,0.07-0.04,0.17-0.13,0.29l-1.87-0.04l-0.71-0.02l-1.03,0.02H4.84
		l-0.93,0.05L1.08,16.79z"/>
	<path class="st0" d="M24.14,7.25L17.39,7.3l-1.28,0c-0.52,0-1.04,0.03-1.58,0.07c-0.1,0.36-0.15,0.61-0.15,0.74l0.02,0.18v0.18
		l-0.02,0.88c0,0.73,0.22,1.63,0.65,2.69c0.43,1.06,1.05,1.87,1.85,2.43c0.8,0.56,1.81,0.85,3.01,0.89
		c0.64-0.04,1.15-0.12,1.53-0.25c0.38-0.13,0.92-0.44,1.62-0.92l1.21-1.06l0.1,0.72c0,0.08-0.01,0.17-0.02,0.27
		c-0.51,0.68-1.15,1.28-1.92,1.8c-0.77,0.52-1.56,0.89-2.36,1.13c-0.38,0.11-1.01,0.16-1.89,0.16c-0.8,0-1.58-0.17-2.36-0.52
		c-1.15-0.53-2.05-1.38-2.7-2.54c-0.66-1.17-0.99-2.59-0.99-4.25c0-0.53,0.09-1.2,0.28-2.03c0.19-0.83,0.52-1.71,1-2.64
		c0.33-0.64,0.72-1.16,1.2-1.56c0.67-0.58,1.26-0.98,1.77-1.2c0.73-0.32,1.58-0.49,2.54-0.49c1.04,0,1.9,0.2,2.56,0.61
		c0.9,0.54,1.57,1.23,2.01,2.09c0.44,0.85,0.67,1.63,0.67,2.34V7.25z M14.74,6.6h0.79c0.57,0,2.28-0.1,5.12-0.29
		c0.45-0.02,0.72-0.07,0.83-0.14c0.2-0.23,0.3-0.43,0.3-0.61c0-0.37-0.11-0.79-0.34-1.27c-0.22-0.47-0.57-0.84-1.04-1.1
		C19.94,2.93,19.4,2.8,18.78,2.8c-1.3,0-2.35,0.52-3.13,1.56C15.04,5.16,14.74,5.9,14.74,6.6z"/>
</g>
</svg>
